<?xml version="1.0" standalone="no"?>
<!DOCTYPE svg PUBLIC "-//W3C//DTD SVG 20010904//EN"
 "http://www.w3.org/TR/2001/REC-SVG-20010904/DTD/svg10.dtd">
<svg version="1.0" xmlns="http://www.w3.org/2000/svg"
 width="1024.000000pt" height="1024.000000pt" viewBox="0 0 1024.000000 1024.000000"
 preserveAspectRatio="xMidYMid meet">

<g transform="translate(0.000000,1024.000000) scale(0.100000,-0.100000)"
fill="#000000" stroke="none">
<path d="M4020 8500 c-85 -13 -224 -57 -293 -91 -130 -66 -219 -141 -307 -261
-77 -105 -125 -204 -155 -322 -22 -87 -25 -119 -25 -281 l0 -182 -31 -7 c-17
-3 -49 -23 -70 -45 l-39 -39 0 -227 c0 -211 1 -230 20 -260 12 -20 37 -39 61
-49 51 -21 52 -55 2 -68 -17 -4 -42 -21 -56 -37 -23 -28 -24 -36 -30 -232 -5
-130 -3 -217 3 -241 12 -42 66 -93 108 -103 l30 -6 0 -1362 -1 -1362 27 -100
c59 -224 196 -425 374 -547 74 -51 227 -118 329 -144 l98 -26 1067 1 1067 1
113 29 c187 47 386 161 480 274 90 108 167 260 201 397 35 139 37 247 37 1764
l-1 1499 24 16 c72 48 151 178 183 301 18 69 18 190 -1 259 -30 113 -109 237
-183 286 l-37 25 8 122 c17 228 -19 408 -114 574 -48 83 -171 222 -247 277
-70 52 -222 125 -310 150 -77 22 -79 22 -1177 23 -605 1 -1125 -2 -1155 -6z
m220 -207 c0 -32 3 -68 6 -80 6 -22 4 -23 -54 -23 -106 0 -209 -26 -311 -77
-152 -76 -231 -167 -307 -353 l-39 -95 -5 -585 c-3 -322 -3 -1210 0 -1975 l6
-1390 23 -75 c30 -97 79 -192 130 -258 47 -58 155 -139 250 -184 120 -57 120
-57 1221 -51 l1005 6 85 24 c187 54 313 149 403 305 94 164 88 87 93 1128 2
503 4 1107 4 1341 l0 427 33 5 c17 3 42 8 55 12 l22 7 0 -1488 c0 -1302 -2
-1500 -16 -1578 -49 -283 -177 -458 -416 -571 -178 -83 -175 -83 -918 -88
-876 -6 -1454 4 -1535 27 -87 25 -231 98 -297 151 -143 113 -242 304 -273 528
-3 26 -8 643 -10 1370 -2 992 0 1325 8 1336 8 10 13 93 14 265 2 236 1 253
-17 278 -26 36 -27 104 -1 132 18 19 20 41 22 272 3 230 2 254 -15 279 -17 26
-18 45 -13 204 6 209 24 287 93 424 80 155 236 294 398 353 94 34 190 52 279
53 l77 1 0 -57z m1640 40 c-1 -59 -30 -224 -45 -256 -22 -48 -75 -93 -122
-106 -46 -13 -1056 -14 -1120 -2 -54 10 -106 45 -139 92 -27 39 -53 156 -54
242 l0 47 740 0 c698 0 740 -1 740 -17z m347 1 c268 -55 474 -214 564 -434 45
-112 69 -235 69 -358 l0 -112 -26 10 c-14 6 -40 10 -58 10 l-32 0 -1 93 c0
102 -27 200 -86 312 -43 81 -184 222 -257 257 -109 52 -220 78 -328 78 l-53 0
5 33 c3 17 8 53 11 80 l6 47 55 0 c30 0 89 -7 131 -16z m-35 -310 c80 -19 184
-74 240 -125 l46 -44 -3 -210 c-1 -115 1 -215 6 -221 5 -6 -8 -21 -35 -38 -52
-33 -136 -111 -136 -127 0 -6 -28 13 -62 43 -172 147 -245 186 -435 228 -87
19 -126 20 -655 20 -672 0 -699 -3 -883 -98 -205 -107 -359 -330 -404 -586 -7
-36 -11 -235 -11 -496 0 -408 1 -440 20 -510 46 -166 166 -359 280 -449 27
-21 54 -41 60 -43 14 -4 -3 -214 -26 -323 -25 -125 -16 -165 40 -165 36 0 138
32 172 55 l22 14 4 -95 c5 -122 14 -133 95 -116 32 6 96 32 143 56 47 24 155
80 240 123 l155 78 125 -5 c243 -9 673 -5 756 8 144 22 308 95 362 161 7 9 17
17 22 17 6 1 14 2 19 3 21 2 62 50 81 95 23 51 42 61 35 19 -11 -74 -22 -307
-34 -743 -7 -249 -10 -280 -30 -332 -12 -32 -27 -60 -32 -64 -5 -3 -9 -2 -8 3
4 21 -2 33 -16 33 -13 0 -14 -4 -5 -21 15 -28 -2 -71 -42 -104 -28 -24 -36
-25 -153 -25 l-124 0 -17 -35 c-22 -47 -217 -245 -241 -245 -16 0 -18 -6 -15
-33 3 -28 -2 -38 -37 -70 -39 -35 -45 -37 -114 -38 -39 -1 -77 -1 -83 0 -7 1
-9 -9 -7 -22 4 -19 -12 -41 -71 -104 -42 -45 -76 -85 -76 -90 0 -5 -13 -27
-30 -50 l-30 -40 -367 -1 c-203 -1 -453 -5 -558 -8 -160 -6 -203 -4 -270 11
-98 21 -229 82 -272 127 -48 50 -101 144 -126 223 l-21 70 -1 1961 0 1960 43
87 c97 196 228 281 452 294 l106 6 18 -42 c21 -45 104 -129 155 -155 58 -31
195 -37 747 -34 l539 3 60 29 c79 39 138 95 164 156 l22 50 72 -6 c40 -3 98
-12 129 -20z m-667 -633 c236 -7 255 -9 330 -35 99 -34 199 -95 289 -178 l69
-64 -16 -82 c-21 -100 -21 -166 -3 -253 14 -64 63 -177 92 -210 10 -11 11 -24
4 -50 -6 -18 -10 -106 -11 -194 0 -88 -4 -221 -8 -295 -14 -221 -62 -336 -207
-489 -56 -60 -84 -81 -163 -119 l-96 -47 -513 -1 -514 -1 -46 -35 c-26 -20
-83 -58 -127 -86 -44 -28 -108 -69 -143 -91 -52 -34 -64 -38 -69 -25 -7 20 2
293 12 315 5 13 -4 20 -41 33 -130 44 -239 178 -311 383 l-28 78 -3 430 c-4
482 0 522 61 650 58 121 170 241 272 293 68 34 176 64 260 72 104 9 592 10
910 1z m1005 -186 c0 -18 -11 -32 -42 -52 -24 -15 -53 -36 -65 -47 -35 -30
-36 -14 -3 32 23 32 93 92 107 92 2 0 3 -11 3 -25z m-3249 -175 c1 -76 -2
-135 -7 -135 -5 0 -10 65 -12 145 -2 93 1 141 7 135 5 -6 11 -71 12 -145z
m3521 23 c17 -15 19 -26 13 -69 -5 -42 -2 -59 14 -90 27 -49 26 -74 -1 -109
-43 -55 -113 -68 -185 -35 -34 15 -43 24 -43 44 0 40 10 54 45 66 l32 11 -33
33 c-60 60 -42 143 36 165 46 13 97 6 122 -16z m-3521 -556 c-1 -4 -1 -65 -1
-137 0 -71 -4 -130 -9 -130 -10 0 -26 254 -16 270 7 12 27 10 26 -3z m3025
-2709 c45 -49 44 -77 -4 -128 l-39 -40 -158 0 -158 0 -33 36 c-39 40 -45 84
-17 124 34 49 38 50 211 48 l164 -3 34 -37z"/>
<path d="M6682 3273 c-13 -43 -26 -87 -29 -97 -4 -12 -2 -17 4 -13 13 8 56
152 51 173 -2 8 -13 -20 -26 -63z"/>
<path d="M4625 2998 c-55 -31 -61 -92 -14 -132 l31 -26 466 0 c297 0 481 4
505 11 26 7 44 21 57 42 22 36 19 60 -13 95 l-20 22 -496 0 c-354 -1 -502 -4
-516 -12z"/>
<path d="M4878 8222 c-167 -2 -167 -3 -187 -29 -29 -36 -26 -69 8 -104 l29
-29 420 0 420 0 26 31 c29 34 30 38 16 73 -20 53 -35 56 -311 58 -140 2 -329
2 -421 0z"/>
<path d="M6764 7675 c-3 -8 -4 -20 -2 -27 3 -7 7 -1 10 15 6 29 1 36 -8 12z"/>
<path d="M4352 4580 c0 -19 2 -27 5 -17 2 9 2 25 0 35 -3 9 -5 1 -5 -18z"/>
<path d="M5751 4544 c0 -11 3 -14 6 -6 3 7 2 16 -1 19 -3 4 -6 -2 -5 -13z"/>
<path d="M6295 4480 c-3 -5 -1 -10 4 -10 6 0 11 5 11 10 0 6 -2 10 -4 10 -3 0
-8 -4 -11 -10z"/>
<path d="M6120 4460 c-120 -4 -144 -7 -106 -12 27 -5 75 -8 107 -8 64 0 71 -7
57 -60 -6 -19 -11 -48 -13 -65 -2 -16 -8 -31 -14 -33 -6 -2 -8 -8 -5 -14 5 -7
-2 -9 -20 -4 -18 4 -25 3 -21 -4 3 -5 20 -10 36 -10 18 0 28 4 24 10 -3 6 1
10 9 10 8 0 18 -4 21 -10 3 -5 18 -10 33 -10 15 0 41 -9 59 -20 21 -12 30 -14
27 -6 -3 7 -17 19 -32 25 -20 10 -23 14 -12 21 8 5 17 7 20 5 3 -2 6 17 8 41
2 26 -2 44 -8 44 -5 0 -10 9 -10 21 0 11 -5 29 -11 40 -7 15 -7 24 2 35 6 8
10 13 8 12 -2 -1 -74 -5 -159 -8z"/>
<path d="M4712 4443 c37 -2 100 -2 140 0 40 1 10 3 -67 3 -77 0 -110 -1 -73
-3z"/>
<path d="M5353 4443 c43 -2 110 -2 150 0 40 1 5 3 -78 3 -82 0 -115 -2 -72 -3z"/>
<path d="M4359 4148 c4 -28 6 -29 9 -9 2 13 0 27 -5 32 -6 6 -7 -3 -4 -23z"/>
<path d="M4093 4033 c9 -2 23 -2 30 0 6 3 -1 5 -18 5 -16 0 -22 -2 -12 -5z"/>
<path d="M4668 4024 c13 -9 27 -12 35 -7 6 4 55 11 107 14 l95 5 -130 2 c-120
2 -128 1 -107 -14z"/>
<path d="M5363 4033 c48 -2 126 -2 175 0 48 1 8 3 -88 3 -96 0 -136 -2 -87 -3z"/>
<path d="M5443 3833 c9 -2 23 -2 30 0 6 3 -1 5 -18 5 -16 0 -22 -2 -12 -5z"/>
<path d="M4345 3780 c3 -5 8 -10 11 -10 2 0 4 5 4 10 0 6 -5 10 -11 10 -5 0
-7 -4 -4 -10z"/>
<path d="M4097 3613 c18 -2 50 -2 70 0 21 2 7 4 -32 4 -38 0 -55 -2 -38 -4z"/>
<path d="M4660 3611 c-24 -7 249 -3 280 3 8 2 -46 4 -120 4 -74 0 -146 -3
-160 -7z"/>
<path d="M4511 7229 c-67 -41 -189 -139 -224 -180 -20 -22 -48 -65 -64 -95
-26 -50 -27 -56 -13 -81 17 -30 60 -48 93 -39 12 3 45 36 72 73 53 71 156 163
181 163 27 0 73 33 84 60 13 32 1 69 -31 99 -29 27 -55 26 -98 0z"/>
<path d="M4744 7196 c-3 -8 2 -65 10 -128 9 -62 23 -171 31 -243 8 -71 28
-213 45 -315 16 -102 32 -210 35 -240 12 -111 11 -109 63 -112 39 -2 48 -7 50
-24 2 -14 -7 -28 -31 -44 -94 -65 -134 -228 -85 -357 32 -86 123 -174 203
-198 193 -56 370 63 410 277 14 77 -29 184 -117 290 l-39 47 53 3 53 3 12 100
c7 55 21 159 33 230 11 72 27 202 35 290 9 88 24 218 35 289 10 72 17 134 14
138 -3 4 -185 8 -405 8 -334 0 -401 -2 -405 -14z m564 -141 c7 -3 12 -15 10
-27 -3 -20 -11 -24 -68 -30 -36 -3 -111 -8 -167 -9 l-101 -3 4 -31 c11 -84 24
-167 38 -230 8 -38 18 -130 21 -205 3 -74 8 -163 11 -197 4 -56 3 -63 -14 -63
-21 0 -28 44 -101 605 -12 88 -23 169 -26 180 -4 20 0 20 188 17 106 -2 198
-5 205 -7z m-85 -1055 c53 -33 63 -57 20 -44 -45 13 -85 9 -135 -13 -41 -19
-48 -27 -59 -65 -6 -24 -12 -64 -12 -90 -1 -51 -9 -53 -33 -6 -51 99 30 248
136 248 23 0 53 -11 83 -30z"/>
<path d="M4225 6730 c-3 -5 3 -10 14 -10 12 0 21 5 21 10 0 6 -6 10 -14 10 -8
0 -18 -4 -21 -10z"/>
</g>
</svg>
